<?xml version="1.0" encoding="utf-8"?>
<!-- Generator: Adobe Illustrator 15.0.2, SVG Export Plug-In . SVG Version: 6.00 Build 0)  -->
<!DOCTYPE svg PUBLIC "-//W3C//DTD SVG 1.1//EN" "http://www.w3.org/Graphics/SVG/1.1/DTD/svg11.dtd">
<svg version="1.1" id="Layer_1" xmlns="http://www.w3.org/2000/svg" xmlns:xlink="http://www.w3.org/1999/xlink" x="0px" y="0px"
	 width="612px" height="792px" viewBox="0 0 612 792" enable-background="new 0 0 612 792" xml:space="preserve">
<g transform="matrix(2.83277e-16,1,-1,2.83277e-16,97.9691,-46.0028)">
	<path fill="#FFFFFF" stroke="#000000" stroke-miterlimit="10" d="M533.046-217.021l-76.133-76.127c-3.58-3.586-3.58-9.4,0-12.986
		c3.586-3.58,9.4-3.58,12.986,0c0,0,69.854,69.859,91.764,91.77c3.586,3.58,3.586,9.394,0,12.98
		c-20.931,20.93-88.52,88.52-91.764,91.763c-3.586,3.586-9.4,3.586-12.986,0c-3.58-3.586-3.58-9.395,0-12.98l76.06-76.06H328.765
		c-2.436,0-4.767-0.967-6.493-2.687c-1.72-1.726-2.687-4.058-2.687-6.493s0.967-4.768,2.687-6.493
		c1.727-1.72,4.058-2.687,6.493-2.687H533.046z"/>
</g>
</svg>
